<svg viewBox="0 0 65 235" xmlns="http://www.w3.org/2000/svg"><style>text{fill:#444}g path{stroke:#444}</style><path fill="#ffc" d="M0 50h20v20H0z"/><path fill="#ffeda0" d="M0 70h20v20H0z"/><path fill="#fed976" d="M0 90h20v20H0z"/><path fill="#feb24c" d="M0 110h20v20H0z"/><path fill="#fd8d3c" d="M0 130h20v20H0z"/><path fill="#fc4e2a" d="M0 150h20v20H0z"/><path fill="#e31a1c" d="M0 170h20v20H0z"/><path fill="#bd0026" d="M0 190h20v20H0z"/><path fill="#800026" d="M0 210h20v20H0z"/><g fill="none" font-size="10" font-family="sans-serif"><path d="M31 50.5h-5.5V230H31M25 70.451h6"/><text x="9" dy=".32em" transform="translate(25 70.951)">1,600</text><path d="M25 98.757h6"/><text x="9" dy=".32em" transform="translate(25 98.757)">1,800</text><path d="M25 126.562h6"/><text x="9" dy=".32em" transform="translate(25 126.562)">2,000</text><path d="M25 154.368h6"/><text x="9" dy=".32em" transform="translate(25 154.368)">2,200</text><path d="M25 182.174h6"/><text x="9" dy=".32em" transform="translate(25 182.174)">2,400</text><path d="M25 209.98h6"/><text x="9" dy=".32em" transform="translate(25 209.98)">2,600</text></g><text transform="translate(5 40)">h/an</text></svg>
